<?xml version="1.0" standalone="no"?>
<!DOCTYPE svg PUBLIC "-//W3C//DTD SVG 20010904//EN"
 "http://www.w3.org/TR/2001/REC-SVG-20010904/DTD/svg10.dtd">
<svg version="1.0" xmlns="http://www.w3.org/2000/svg"
 width="500.000000pt" height="500.000000pt" viewBox="0 0 500.000000 500.000000"
 preserveAspectRatio="xMidYMid meet">
<metadata>
Created by potrace 1.14, written by Peter Selinger 2001-2017
</metadata>
<g transform="translate(0.000000,500.000000) scale(0.100000,-0.100000)"
fill="#000000" stroke="none">
<path d="M3153 3421 c-29 -6 -23 -9 80 -53 l111 -48 -54 55 c-56 57 -66 60
-137 46z"/>
<path d="M3340 3382 c0 -5 29 -32 65 -61 l65 -53 75 33 c41 18 75 36 75 39 0
9 -140 38 -217 45 -35 3 -63 1 -63 -3z"/>
<path d="M1125 3336 c-211 -67 -387 -214 -487 -406 -37 -70 -72 -159 -66 -165
2 -2 14 23 27 56 26 67 26 67 126 44 36 -9 70 -13 75 -10 5 3 11 1 15 -5 3 -5
16 -10 28 -10 19 1 19 3 -8 17 -17 9 -48 15 -72 14 -51 -2 -57 14 -10 29 31
10 31 10 3 6 -34 -4 -56 2 -56 16 0 5 5 6 11 2 7 -4 7 1 -1 16 -9 16 -9 25 -1
29 6 4 9 19 8 34 -1 14 1 26 6 27 23 1 26 -2 20 -17 -4 -13 0 -11 15 5 13 15
26 21 34 16 10 -5 10 -4 1 6 -9 10 -16 10 -25 2 -17 -14 -43 1 -33 18 6 9 10
9 17 -1 8 -11 9 -10 5 3 -3 9 2 22 10 30 14 11 16 11 11 -4 -4 -9 -1 -19 7
-22 9 -3 12 0 9 9 -3 8 7 26 22 40 20 19 23 24 8 19 -17 -7 -17 -6 -5 9 8 10
16 15 19 13 8 -9 43 15 37 25 -4 5 2 9 12 9 11 0 28 7 39 15 19 15 19 15 -1 9
-19 -7 -19 -6 -2 12 15 16 19 17 27 4 9 -13 10 -13 11 0 1 8 1 18 0 23 -2 11
17 9 24 -3 3 -5 14 -10 23 -10 13 0 13 2 -4 16 -17 14 -17 15 -1 10 12 -4 16
-2 11 6 -5 8 -2 9 9 5 10 -4 16 -2 14 6 -1 8 9 11 28 10 23 -2 27 0 15 8 -13
8 -12 10 3 7 25 -4 17 -23 -9 -23 -14 1 -20 -4 -17 -13 3 -7 12 -11 19 -8 48
20 47 20 42 -2 -4 -12 -2 -20 3 -16 5 3 9 12 9 20 0 8 3 13 8 13 19 -3 23 2
12 16 -10 12 -10 15 1 15 8 0 20 -4 27 -9 11 -7 10 -9 -3 -15 -12 -4 -14 -12
-10 -27 6 -18 4 -21 -10 -15 -16 6 -17 5 -1 -19 9 -14 18 -42 20 -62 4 -35 12
-108 21 -176 3 -22 0 -27 -12 -23 -8 3 -19 6 -24 6 -5 0 -9 4 -9 10 0 5 8 7
18 4 9 -2 7 1 -5 7 -17 9 -23 21 -23 48 0 20 -4 41 -8 48 -4 6 -7 -13 -7 -42
0 -29 3 -51 6 -49 4 2 9 -6 12 -17 4 -15 2 -19 -9 -15 -9 3 -12 1 -9 -5 4 -5
16 -7 28 -4 21 6 21 6 3 -9 -10 -9 -23 -13 -28 -10 -5 3 -7 0 -6 -8 2 -9 -9
-13 -36 -13 -23 0 -41 -5 -43 -12 -6 -16 -2 -16 33 -3 24 9 25 9 14 -5 -7 -8
-16 -13 -20 -10 -4 3 -13 -2 -20 -10 -7 -8 -9 -15 -5 -15 4 0 2 -7 -5 -15 -7
-9 -20 -13 -28 -10 -9 3 -12 0 -9 -9 4 -10 0 -12 -14 -9 -10 3 -19 9 -19 13 0
4 -24 8 -52 7 -46 0 -49 -1 -23 -8 17 -5 38 -6 49 -3 14 5 16 3 11 -7 -5 -8
-5 -11 -1 -7 5 4 19 2 33 -3 22 -8 30 -4 68 36 41 42 129 105 147 105 4 0 8
-11 8 -24 0 -53 7 -56 66 -29 102 46 269 41 374 -12 79 -40 60 -23 844 -780
293 -284 335 -321 426 -375 65 -39 229 -100 269 -100 13 0 23 -8 27 -24 7 -31
32 -36 169 -32 106 4 212 25 294 59 l33 14 -183 155 c-101 85 -189 157 -196
161 -6 4 -35 12 -63 17 -71 13 -139 45 -148 69 -4 11 -47 56 -97 102 -87 79
-372 350 -620 589 -251 242 -418 395 -431 395 -7 0 -16 4 -21 9 -5 5 -2 6 7 2
8 -4 2 4 -14 17 -43 37 -180 102 -266 127 -99 28 -279 37 -380 19 -98 -18 -95
-18 -95 13 -1 15 -3 29 -5 32 -3 2 -36 -6 -75 -18z m65 -11 c0 -8 -5 -15 -11
-15 -5 0 -7 5 -3 12 5 8 0 9 -14 6 -12 -4 -20 -2 -16 3 9 15 44 10 44 -6z
m-62 -30 c-3 -3 -9 2 -12 12 -6 14 -5 15 5 6 7 -7 10 -15 7 -18z m574 -28 c9
-1 14 -5 11 -10 -3 -5 -11 -6 -18 -3 -7 2 -18 -1 -24 -7 -9 -9 -11 -8 -5 6 6
16 2 18 -32 13 -31 -4 -34 -4 -14 3 14 5 34 7 45 4 11 -3 28 -5 37 -6z m102
-50 c-4 -11 -44 -19 -44 -10 0 3 33 18 47 22 1 1 0 -5 -3 -12z m78 -49 c-7 -7
-12 -8 -12 -2 0 14 12 26 19 19 2 -3 -1 -11 -7 -17z m-1012 8 c0 -2 -7 -7 -16
-10 -8 -3 -12 -2 -9 4 6 10 25 14 25 6z m-70 -61 c-7 -9 -15 -13 -17 -11 -7 7
7 26 19 26 6 0 6 -6 -2 -15z m1183 -15 c4 0 5 6 1 13 -4 6 4 2 17 -10 17 -17
20 -26 12 -34 -8 -8 -11 -6 -10 7 1 12 -4 18 -14 16 -9 -1 -22 6 -30 15 -11
15 -11 16 1 6 8 -7 18 -13 23 -13z m68 -47 c13 -16 12 -17 -3 -5 -11 9 -18 10
-23 2 -3 -5 -11 -10 -18 -10 -8 0 19 27 29 30 1 0 8 -8 15 -17z m-14 -28 c0
-8 -4 -12 -9 -9 -5 3 -6 10 -3 15 9 13 12 11 12 -6z m-30 -17 c-3 -8 -6 -5 -6
6 -1 11 2 17 5 13 3 -3 4 -12 1 -19z m90 10 c14 -23 12 -37 -5 -30 -10 4 -12
7 -4 10 7 2 9 8 6 13 -3 6 -11 5 -20 -2 -12 -10 -13 -9 -8 5 7 19 20 21 31 4z
m-1393 -33 c-4 -8 -11 -15 -16 -15 -6 0 -5 -6 2 -15 15 -18 4 -36 -18 -28 -25
9 -11 -3 23 -21 l30 -16 -26 0 c-14 0 -31 6 -38 13 -11 10 -13 10 -7 0 4 -7 2
-13 -3 -13 -16 0 -13 26 5 44 8 9 13 16 9 16 -3 0 2 11 11 25 18 27 37 34 28
10z m686 5 c-8 -5 -19 -10 -25 -10 -5 0 -3 5 5 10 8 5 20 10 25 10 6 0 3 -5
-5 -10z m730 -44 c0 -5 -3 -6 -7 -3 -3 4 -11 3 -17 -2 -7 -6 -11 -2 -11 13 0
19 3 21 18 12 9 -6 17 -15 17 -20z m32 9 c0 -5 -5 -11 -11 -13 -6 -2 -11 4
-11 13 0 9 5 15 11 13 6 -2 11 -8 11 -13z m-197 -46 c-18 -5 -33 -5 -39 1 -7
7 4 10 30 9 39 -1 39 -1 9 -10z m-65 -9 c-8 -5 -22 -10 -30 -10 -13 0 -13 1 0
10 8 5 22 10 30 10 13 0 13 -1 0 -10z m-112 -14 l47 3 -43 -11 c-37 -9 -45 -9
-58 5 -8 9 -9 13 -3 8 6 -4 31 -7 57 -5z m-67 -13 c13 -16 12 -17 -3 -4 -10 7
-18 15 -18 17 0 8 8 3 21 -13z"/>
<path d="M676 2947 c3 -10 9 -15 12 -12 3 3 0 11 -7 18 -10 9 -11 8 -5 -6z"/>
<path d="M3198 3310 c-141 -24 -312 -108 -414 -203 l-57 -53 359 72 c197 40
360 71 362 69 3 -3 -208 -175 -585 -479 -68 -54 -123 -102 -123 -106 0 -10 35
-40 47 -40 5 0 18 10 29 21 67 76 288 269 330 288 109 52 200 62 313 36 135
-32 243 -120 307 -250 32 -65 38 -88 42 -159 4 -75 -5 -151 -23 -199 -5 -12
-2 -17 10 -17 22 0 16 -15 -31 -86 -43 -64 -101 -116 -166 -150 -55 -28 -156
-54 -211 -54 -38 0 -37 -1 154 -160 105 -88 196 -160 202 -160 32 0 162 93
243 174 103 103 170 207 208 326 35 107 41 141 25 150 -9 6 -12 36 -10 113 2
84 0 107 -12 114 -8 4 -59 49 -113 99 -55 50 -153 139 -219 199 -393 354 -375
339 -496 403 -64 34 -118 61 -120 61 -2 -1 -25 -5 -51 -9z"/>
<path d="M3582 3247 l-63 -41 28 -27 c139 -135 699 -637 701 -629 7 21 -30
177 -60 247 -80 194 -240 360 -430 447 -107 49 -105 49 -176 3z"/>
<path d="M908 3163 c7 -3 16 -2 19 1 4 3 -2 6 -13 5 -11 0 -14 -3 -6 -6z"/>
<path d="M1132 3140 c-10 -17 -10 -20 3 -20 9 0 15 -9 16 -22 0 -13 3 -18 5
-11 3 6 1 25 -3 42 -8 30 -9 30 -21 11z"/>
<path d="M857 3114 c5 -14 3 -16 -11 -11 -10 4 -15 3 -11 -3 9 -15 35 -12 35
4 0 8 -4 18 -10 21 -6 4 -7 -1 -3 -11z"/>
<path d="M810 2910 c-8 -5 -11 -13 -6 -17 5 -4 11 -2 13 5 3 6 14 12 26 12 20
0 20 0 1 -15 -19 -14 -19 -14 2 -15 27 0 36 10 23 27 -13 15 -38 17 -59 3z"/>
<path d="M4315 2388 c10 -96 13 -99 45 -38 16 30 29 60 30 67 0 10 -49 33 -72
33 -5 0 -6 -27 -3 -62z"/>
<path d="M4387 2248 c-42 -33 -76 -62 -74 -64 2 -2 30 5 63 16 54 18 63 25 82
65 12 25 18 45 14 45 -4 -1 -42 -28 -85 -62z"/>
<path d="M2160 2142 c-25 -21 -148 -121 -273 -221 -125 -101 -226 -185 -225
-187 2 -1 94 31 205 73 l202 75 113 108 113 108 -40 41 c-21 23 -42 41 -45 41
-3 0 -25 -17 -50 -38z"/>
<path d="M3268 2143 c-14 -3 -18 -15 -18 -49 l0 -45 23 18 c51 40 87 72 87 77
0 7 -66 6 -92 -1z"/>
<path d="M1965 1784 c-109 -41 -201 -77 -203 -78 -2 -2 18 -19 44 -36 l47 -33
66 33 c36 18 89 48 116 66 60 41 154 124 140 123 -5 0 -100 -34 -210 -75z"/>
</g>
</svg>
